HIERARCHY
ROOT Hips
{
	OFFSET 0.000000 35.082581 0.000000
	CHANNELS 6 Xposition Yposition Zposition Xrotation Yrotation Zrotation 
	JOINT Spine
	{
		OFFSET 0.000000 6.876099 0.125700
		CHANNELS 3 Xrotation Yrotation Zrotation
		JOINT Spine1
		{
			OFFSET 0.000000 5.730043 0.104720
			CHANNELS 3 Xrotation Yrotation Zrotation
			JOINT Spine1_split
			{
				OFFSET 0.000000 5.730043 0.104720
				CHANNELS 3 Xrotation Yrotation Zrotation
				JOINT Spine2
				{
					OFFSET 0.000000 5.730043 0.104720
					CHANNELS 3 Xrotation Yrotation Zrotation
					JOINT Neck
					{
						OFFSET 0.000000 10.314075 0.188496
						CHANNELS 3 Xrotation Yrotation Zrotation
						JOINT Head
						{
							OFFSET 0.000000 7.643700 -2.377400
							CHANNELS 3 Xrotation Yrotation Zrotation
							JOINT HeadTop_End
							{
								OFFSET 0.000000 43.788605 -13.619600
								CHANNELS 3 Xrotation Yrotation Zrotation
								End Site
								{
									OFFSET 0.000000 0.000000 0.000000
								}
							}
						}
					}
					JOINT LeftShoulder
					{
						OFFSET 2.196100 4.412489 0.087492
						CHANNELS 3 Xrotation Yrotation Zrotation
						JOINT LeftShoulder_split
						{
							OFFSET 2.196100 4.412489 0.087492
							CHANNELS 3 Xrotation Yrotation Zrotation
							JOINT LeftArm
							{
								OFFSET 8.771219 -2.981674 -0.026999
								CHANNELS 3 Xrotation Yrotation Zrotation
								JOINT LeftForeArm
								{
									OFFSET 8.512804 0.000000 -0.000000
									CHANNELS 3 Xrotation Yrotation Zrotation
									JOINT LeftHand
									{
										OFFSET 18.484802 0.000000 -0.000000
										CHANNELS 3 Xrotation Yrotation Zrotation
										JOINT LeftHandThumb1
										{
											OFFSET 2.499420 -1.158070 2.653252
											CHANNELS 3 Xrotation Yrotation Zrotation
											JOINT LeftHandThumb2
											{
												OFFSET 2.370079 -1.368366 1.368366
												CHANNELS 3 Xrotation Yrotation Zrotation
												JOINT LeftHandThumb3
												{
													OFFSET 2.676727 -1.545410 1.545409
													CHANNELS 3 Xrotation Yrotation Zrotation
													JOINT LeftHandThumb4
													{
														OFFSET 1.692226 -0.977005 0.977007
														CHANNELS 3 Xrotation Yrotation Zrotation
														End Site
														{
															OFFSET 0.000000 0.000000 0.000000
														}
													}
												}
											}
										}
										JOINT LeftHandIndex1
										{
											OFFSET 7.924831 -0.457527 2.345128
											CHANNELS 3 Xrotation Yrotation Zrotation
											JOINT LeftHandIndex2
											{
												OFFSET 3.643303 0.000000 0.000000
												CHANNELS 3 Xrotation Yrotation Zrotation
												JOINT LeftHandIndex3
												{
													OFFSET 3.810799 0.000000 0.000000
													CHANNELS 3 Xrotation Yrotation Zrotation
													JOINT LeftHandIndex4
													{
														OFFSET 2.403702 0.000000 0.000000
														CHANNELS 3 Xrotation Yrotation Zrotation
														End Site
														{
															OFFSET 0.000000 0.000000 0.000000
														}
													}
												}
											}
										}
										JOINT LeftHandMiddle1
										{
											OFFSET 8.563995 0.000000 -0.000000
											CHANNELS 3 Xrotation Yrotation Zrotation
											JOINT LeftHandMiddle2
											{
												OFFSET 3.861618 0.000000 0.000000
												CHANNELS 3 Xrotation Yrotation Zrotation
												JOINT LeftHandMiddle3
												{
													OFFSET 3.701603 0.000000 0.000000
													CHANNELS 3 Xrotation Yrotation Zrotation
													JOINT LeftHandMiddle4
													{
														OFFSET 2.322544 0.000000 0.000000
														CHANNELS 3 Xrotation Yrotation Zrotation
														End Site
														{
															OFFSET 0.000000 0.000000 0.000000
														}
													}
												}
											}
										}
										JOINT LeftHandRing1
										{
											OFFSET 8.426460 -0.424637 -3.286992
											CHANNELS 3 Xrotation Yrotation Zrotation
											JOINT LeftHandRing2
											{
												OFFSET 3.126408 0.000000 0.000000
												CHANNELS 3 Xrotation Yrotation Zrotation
												JOINT LeftHandRing3
												{
													OFFSET 3.085026 0.000000 0.000000
													CHANNELS 3 Xrotation Yrotation Zrotation
													JOINT LeftHandRing4
													{
														OFFSET 1.644005 0.000000 0.000000
														CHANNELS 3 Xrotation Yrotation Zrotation
														End Site
														{
															OFFSET 0.000000 0.000000 0.000000
														}
													}
												}
											}
										}
									}
								}
							}
						}
					}
					JOINT RightShoulder
					{
						OFFSET -2.196100 4.412496 0.070690
						CHANNELS 3 Xrotation Yrotation Zrotation
						JOINT RightShoulder_split
						{
							OFFSET -2.196100 4.412496 0.070690
							CHANNELS 3 Xrotation Yrotation Zrotation
							JOINT RightArm
							{
								OFFSET -8.771282 -2.981682 -0.094208
								CHANNELS 3 Xrotation Yrotation Zrotation
								JOINT RightForeArm
								{
									OFFSET -8.494598 0.000000 0.000000
									CHANNELS 3 Xrotation Yrotation Zrotation
									JOINT RightHand
									{
										OFFSET -18.483803 0.000000 0.000001
										CHANNELS 3 Xrotation Yrotation Zrotation
										JOINT RightHandThumb1
										{
											OFFSET -2.527351 -1.008072 2.575253
											CHANNELS 3 Xrotation Yrotation Zrotation
											JOINT RightHandThumb2
											{
												OFFSET -2.321518 -1.340328 1.340329
												CHANNELS 3 Xrotation Yrotation Zrotation
												JOINT RightHandThumb3
												{
													OFFSET -2.657753 -1.534454 1.534455
													CHANNELS 3 Xrotation Yrotation Zrotation
													JOINT RightHandThumb4
													{
														OFFSET -1.807510 -1.043568 1.043567
														CHANNELS 3 Xrotation Yrotation Zrotation
														End Site
														{
															OFFSET 0.000000 0.000000 0.000000
														}
													}
												}
											}
										}
										JOINT RightHandIndex1
										{
											OFFSET -8.811420 0.015533 2.887987
											CHANNELS 3 Xrotation Yrotation Zrotation
											JOINT RightHandIndex2
											{
												OFFSET -3.537502 0.000000 0.000000
												CHANNELS 3 Xrotation Yrotation Zrotation
												JOINT RightHandIndex3
												{
													OFFSET -3.356201 0.000000 0.000000
													CHANNELS 3 Xrotation Yrotation Zrotation
													JOINT RightHandIndex4
													{
														OFFSET -1.933098 0.000000 0.000000
														CHANNELS 3 Xrotation Yrotation Zrotation
														End Site
														{
															OFFSET 0.000000 0.000000 0.000000
														}
													}
												}
											}
										}
										JOINT RightHandMiddle1
										{
											OFFSET -8.178135 0.000000 0.000000
											CHANNELS 3 Xrotation Yrotation Zrotation
											JOINT RightHandMiddle2
											{
												OFFSET -3.901302 0.000000 0.000000
												CHANNELS 3 Xrotation Yrotation Zrotation
												JOINT RightHandMiddle3
												{
													OFFSET -3.909599 0.000000 0.000000
													CHANNELS 3 Xrotation Yrotation Zrotation
													JOINT RightHandMiddle4
													{
														OFFSET -2.376003 0.000000 0.000000
														CHANNELS 3 Xrotation Yrotation Zrotation
														End Site
														{
															OFFSET 0.000000 0.000000 0.000000
														}
													}
												}
											}
										}
										JOINT RightHandRing1
										{
											OFFSET -7.559013 0.014137 -2.865403
											CHANNELS 3 Xrotation Yrotation Zrotation
											JOINT RightHandRing2
											{
												OFFSET -3.449306 0.000000 0.000000
												CHANNELS 3 Xrotation Yrotation Zrotation
												JOINT RightHandRing3
												{
													OFFSET -3.362106 0.000000 0.000000
													CHANNELS 3 Xrotation Yrotation Zrotation
													JOINT RightHandRing4
													{
														OFFSET -2.076401 0.000000 0.000000
														CHANNELS 3 Xrotation Yrotation Zrotation
														End Site
														{
															OFFSET 0.000000 0.000000 0.000000
														}
													}
												}
											}
										}
									}
								}
							}
						}
					}
				}
			}
		}
	}
	JOINT LeftUpLeg
	{
		OFFSET 10.205400 -3.823500 0.155100
		CHANNELS 3 Xrotation Yrotation Zrotation
		JOINT LeftLeg
		{
			OFFSET 0.708757 -12.982077 0.567790
			CHANNELS 3 Xrotation Yrotation Zrotation
			JOINT LeftFoot
			{
				OFFSET -0.708756 -10.717838 -2.184338
				CHANNELS 3 Xrotation Yrotation Zrotation
				JOINT LeftToeBase
				{
					OFFSET 0.108149 -7.191104 7.560241
					CHANNELS 3 Xrotation Yrotation Zrotation
					JOINT LeftToe_End
					{
						OFFSET 0.070230 0.081724 4.490308
						CHANNELS 3 Xrotation Yrotation Zrotation
						End Site
						{
							OFFSET 0.000000 0.000000 0.000000
						}
					}
				}
			}
		}
	}
	JOINT RightUpLeg
	{
		OFFSET -10.205400 -3.823500 0.005500
		CHANNELS 3 Xrotation Yrotation Zrotation
		JOINT RightLeg
		{
			OFFSET -0.708756 -12.982134 0.610632
			CHANNELS 3 Xrotation Yrotation Zrotation
			JOINT RightFoot
			{
				OFFSET 0.708754 -10.717769 -1.945823
				CHANNELS 3 Xrotation Yrotation Zrotation
				JOINT RightToeBase
				{
					OFFSET -0.108140 -7.191069 7.372968
					CHANNELS 3 Xrotation Yrotation Zrotation
					JOINT RightToe_End
					{
						OFFSET -0.070227 0.081735 4.479403
						CHANNELS 3 Xrotation Yrotation Zrotation
						End Site
						{
							OFFSET 0.000000 0.000000 0.000000
						}
					}
				}
			}
		}
	}
}
MOTION
Frames: 4
Frame Time: 0.016667
1.225657 32.108341 0.981300 -0.174116 18.934346 6.616576 0.128236 7.006971 10.384014 8.389054 6.747494 0.422356 0.000000 0.000000 0.000000 0.206957 6.614082 0.368017 -13.227444 -19.480634 1.743819 5.179462 -17.358822 -2.364412 -0.000000 0.000000 0.000001 -0.154061 9.312177 20.132305 0.000000 0.000000 0.000000 -63.723404 6.157082 -31.462484 318.740804 -20.602974 373.295820 -53.062756 28.769730 30.735568 17.551631 -5.699195 -12.932280 10.850450 26.127712 8.644823 20.926996 51.115879 0.218823 -0.000004 0.000003 -0.000003 13.980900 1.201544 -55.004377 0.370805 1.161750 -65.441893 1.983976 2.147982 -57.665136 -0.000004 -0.000004 -0.000004 7.504734 1.174498 -63.778517 1.807811 1.475677 -64.567937 0.130350 -0.912237 -43.272530 -0.000001 0.000000 0.000002 8.574337 2.179170 -75.149006 -0.207641 1.009281 -57.855042 0.443110 1.742195 -53.581270 -0.000001 -0.000001 -0.000001 5.429969 9.442478 5.676184 0.000000 0.000000 0.000000 15.856580 -66.495238 55.369960 -0.249007 19.228910 37.981528 72.680514 -1.056080 4.143532 15.788539 -2.734505 -17.205837 -2.832792 -29.366590 12.741446 1.549744 -21.136942 -0.203075 0.000006 -0.000003 0.000003 3.460506 -3.220949 22.317851 -2.139067 -2.479456 34.133843 -1.901583 -4.823225 29.633780 -0.000000 -0.000001 0.000001 -1.981757 -5.708777 28.547049 0.291815 -5.115404 57.918502 -0.653259 -1.226449 30.651915 0.000000 0.000001 -0.000002 -3.258548 -8.570296 35.335707 4.048585 -4.073921 65.874511 2.135980 -3.202276 38.603888 0.000002 -0.000000 0.000001 -28.494561 -5.711169 -3.960278 27.523098 0.426357 -6.072960 0.731867 10.368486 -0.030388 -1.917240 0.119889 -0.781983 0.000000 -0.000000 0.000000 23.546480 -14.804587 -5.952497 17.706067 -18.329443 0.401349 -19.786397 -36.500907 24.890367 -6.990846 -0.014885 -0.120602 0.000000 0.000001 0.000000 
1.151963 31.893841 0.947372 0.441616 23.637178 5.924834 -1.088327 7.412676 10.369023 7.340188 7.401396 -0.347057 0.000000 0.000000 0.000000 0.687530 7.224079 -0.473164 -14.981682 -22.379374 3.474323 6.383154 -19.162912 -1.752119 0.000001 0.000000 0.000000 -0.958325 11.589828 16.054732 0.000000 0.000000 0.000000 -66.492124 6.731936 -32.420941 309.931472 -20.341210 375.357199 -52.110129 22.279618 29.101814 17.551628 -5.699196 -12.932283 10.850454 26.127709 8.644825 20.926993 51.115876 0.218826 -0.000003 0.000003 -0.000002 13.980899 1.201542 -55.004381 0.370806 1.161751 -65.441893 1.983978 2.147979 -57.665142 0.000002 0.000001 -0.000001 7.504737 1.174496 -63.778517 1.807810 1.475674 -64.567937 0.130352 -0.912230 -43.272534 0.000000 0.000003 -0.000001 8.574336 2.179174 -75.149013 -0.207645 1.009279 -57.855049 0.443110 1.742195 -53.581270 -0.000000 0.000001 0.000001 5.228965 9.723390 6.084438 0.000000 0.000000 0.000000 10.668926 -68.209425 51.667536 -0.500531 18.866886 38.212381 79.163600 0.444243 3.903852 15.788524 -2.734486 -17.205819 -2.817496 -29.403691 12.657782 1.442650 -20.888499 -0.184260 0.000003 0.000003 -0.000002 3.434954 -3.235364 22.125527 -2.139770 -2.479382 33.905080 -1.901734 -4.823956 29.405009 0.000001 0.000000 -0.000000 -1.981951 -5.708349 28.331281 0.291636 -5.115290 57.471616 -0.653959 -1.226228 30.444144 0.000001 0.000000 0.000000 -3.259467 -8.570104 34.996506 4.048351 -4.073834 65.399300 2.134222 -3.200705 38.277186 0.000000 0.000000 -0.000001 -32.604321 -8.179772 -5.191418 28.464687 -0.277015 -6.192165 2.809618 9.447589 -0.107052 -1.888334 0.117172 -0.774282 0.000000 0.000002 -0.000000 27.264095 -18.779173 -2.607977 12.133237 -18.143049 -1.254238 -17.968085 -34.653040 25.761392 -7.886495 -0.013821 -0.038125 0.000000 -0.000001 -0.000000 
1.074338 31.680435 0.902925 1.129343 27.699962 5.274401 -2.114729 7.847454 10.015025 6.409503 8.037283 -1.007986 0.000000 0.000000 0.000000 1.207253 7.779491 -1.226571 -16.665341 -24.736649 4.961171 7.293001 -20.429632 -1.343610 -0.000001 -0.000000 -0.000000 -1.386113 13.153980 11.553601 0.000000 0.000000 0.000000 -68.111411 6.494222 -33.152427 305.017233 -21.210138 374.224125 -51.626234 18.333257 27.120497 17.551622 -5.699199 -12.932283 10.850450 26.127712 8.644830 20.927000 51.115879 0.218829 -0.000002 -0.000003 -0.000002 13.980894 1.201539 -55.004381 0.370810 1.161749 -65.441893 1.983980 2.147984 -57.665136 -0.000000 0.000001 -0.000001 7.504734 1.174499 -63.778517 1.807811 1.475672 -64.567937 0.130350 -0.912235 -43.272537 0.000001 0.000003 0.000000 8.574335 2.179171 -75.149013 -0.207645 1.009279 -57.855049 0.443109 1.742191 -53.581263 -0.000001 0.000001 0.000001 5.052234 10.207450 6.320864 0.000000 0.000000 0.000000 6.135811 -67.294534 48.041170 0.327626 18.396975 37.774580 83.008594 -0.368266 3.065846 15.788541 -2.734532 -17.205803 -2.808269 -29.432648 12.569099 1.336072 -20.641583 -0.165098 0.000003 -0.000001 0.000003 3.396512 -3.255157 21.917853 -2.140529 -2.479417 33.642230 -1.901919 -4.824725 29.142102 -0.000000 0.000000 -0.000001 -1.982220 -5.708092 28.088026 0.291432 -5.115155 56.979135 -0.654729 -1.226122 30.213034 -0.000001 -0.000000 -0.000000 -3.260375 -8.569921 34.620105 4.048123 -4.073715 64.869134 2.132308 -3.199053 37.919660 0.000001 -0.000001 -0.000000 -36.239126 -10.463148 -6.618232 28.894139 -0.518029 -6.188841 4.908744 8.589688 -0.426976 -1.859383 0.114642 -0.766576 0.000000 0.000001 -0.000000 30.695198 -22.877988 0.543312 7.114134 -16.942262 -2.766140 -16.462646 -32.616954 26.382909 -8.763402 -0.012877 0.039919 0.000000 -0.000001 -0.000000 
1.012654 31.504299 0.868805 1.788617 30.571831 4.782449 -3.007676 8.284925 9.439394 5.554688 8.658321 -1.589354 0.000000 0.000000 0.000000 1.738245 8.299238 -1.912930 -18.260209 -26.743035 6.305345 8.037614 -21.371749 -1.064206 -0.000001 -0.000000 0.000002 -1.577748 14.389638 6.973776 0.000000 0.000000 0.000000 -69.478030 6.137835 -33.977995 302.849440 -21.535482 372.111629 -50.465471 13.830770 25.019678 17.551631 -5.699190 -12.932281 10.850452 26.127710 8.644824 20.926989 51.115872 0.218818 -0.000004 0.000001 -0.000002 13.980896 1.201543 -55.004377 0.370801 1.161755 -65.441893 1.983980 2.147982 -57.665136 0.000000 0.000002 -0.000002 7.504734 1.174501 -63.778517 1.807804 1.475675 -64.567937 0.130358 -0.912233 -43.272537 -0.000001 0.000001 -0.000001 8.574333 2.179170 -75.149006 -0.207646 1.009280 -57.855049 0.443106 1.742189 -53.581267 -0.000002 0.000001 -0.000000 4.894011 10.841107 6.313577 0.000000 0.000000 0.000000 4.878250 -64.300890 47.139107 1.435497 17.723777 37.243529 83.415850 -3.115075 2.073345 15.788508 -2.734527 -17.205819 -2.805490 -29.452759 12.475407 1.229960 -20.397984 -0.145654 0.000003 0.000001 0.000003 3.344295 -3.280454 21.694651 -2.141387 -2.479323 33.343921 -1.902069 -4.825275 28.843831 -0.000002 0.000000 -0.000000 -1.982591 -5.707905 27.816417 0.291215 -5.115013 56.439977 -0.655562 -1.225877 29.957934 0.000000 0.000001 -0.000003 -3.261283 -8.569711 34.205557 4.047808 -4.073566 64.282435 2.130609 -3.197221 37.530821 0.000000 -0.000001 0.000003 -39.044469 -12.611043 -8.077992 28.905244 -0.998530 -6.170902 6.566416 8.981663 -0.951883 -1.830483 0.112118 -0.758869 0.000000 -0.000001 -0.000000 33.266221 -25.607112 3.079608 3.502285 -16.133866 -3.841058 -15.462116 -31.229380 26.826493 -9.229682 -0.012011 0.080790 -0.000000 0.000002 0.000000 
